<?xml version="1.0" encoding="UTF-8"?>
<svg width="849px" height="200px" viewBox="0 0 849 200" version="1.1" xmlns="http://www.w3.org/2000/svg" xmlns:xlink="http://www.w3.org/1999/xlink">
    <title>Logo</title>
    <g id="Logo" stroke="none" stroke-width="1" fill="none" fill-rule="evenodd">
        <g id="Artboard-Copy-2" transform="translate(-284.000000, -300.000000)">
            <g id="Group" transform="translate(284.000000, 300.000000)">
                <g id="Icon">
                    <path d="M122.654092,9.38363214 L190.616368,77.345908 C203.127877,89.8574175 203.127877,110.142582 190.616368,122.654092 L122.654092,190.616368 C110.142582,203.127877 89.8574175,203.127877 77.345908,190.616368 L9.38363214,122.654092 C-3.12787738,110.142582 -3.12787738,89.8574175 9.38363214,77.345908 L77.345908,9.38363214 C89.8574175,-3.12787738 110.142582,-3.12787738 122.654092,9.38363214 Z" id="Fill-bg" fill="#2C55FF"></path>
                    <g id="Group-13">
                        <path d="M142.998,170.0081 C142.103,170.2381 141.191,170.4261 140.265,170.5681 C140.166,170.5821 140.064,170.5871 139.966,170.6021 C139.598,170.6541 139.225,170.6911 138.852,170.7291 C138.574,170.7571 138.298,170.7931 138.017,170.8141 C137.351,170.8621 136.679,170.8901 136,170.8901 C135.353,170.8901 134.714,170.8611 134.078,170.8181 C133.871,170.8041 133.663,170.7941 133.458,170.7761 C133.361,170.7671 133.266,170.7531 133.169,170.7431 C132.848,170.7111 132.528,170.6781 132.211,170.6351 C132.145,170.6261 132.082,170.6131 132.017,170.6051 C130.845,170.4381 129.695,170.2011 128.575,169.8941 C128.547,169.8861 128.519,169.8761 128.491,169.8681 C128.127,169.7671 127.764,169.6591 127.405,169.5441 C127.306,169.5121 127.209,169.4751 127.111,169.4421 C126.054,169.0881 125.023,168.6771 124.027,168.2041 C124.021,168.2021 124.018,168.1991 124.012,168.1971 C122.203,167.3381 120.5,166.2901 118.93,165.0801 C118.881,165.0421 118.834,165.0021 118.786,164.9641 C118.521,164.7581 118.26,164.5501 118.003,164.3351 L118,164.3321 L117.997,164.3351 C113.13,160.2461 106.854,157.7791 100,157.7791 C93.146,157.7791 86.87,160.2461 82.004,164.3351 L82.003,164.3351 L82,164.3321 L81.997,164.3351 C81.74,164.5501 81.478,164.7581 81.214,164.9641 C81.166,165.0021 81.119,165.0421 81.07,165.0801 C79.5,166.2901 77.797,167.3381 75.988,168.1971 C75.983,168.1991 75.978,168.2021 75.974,168.2041 C74.941,168.6951 73.872,169.1191 72.775,169.4821 C72.715,169.5011 72.656,169.5251 72.596,169.5441 C71.109,170.0241 69.567,170.3781 67.983,170.6051 C67.918,170.6131 67.854,170.6261 67.789,170.6351 C67.391,170.6901 66.988,170.7351 66.584,170.7711 C66.57,170.7731 66.557,170.7751 66.542,170.7761 C66.317,170.7961 66.089,170.8071 65.862,170.8211 C65.246,170.8621 64.627,170.8901 64,170.8901 C63.424,170.8901 62.854,170.8661 62.287,170.8321 C62.165,170.8241 62.044,170.8171 61.922,170.8071 C60.75,170.7211 59.598,170.5631 58.47,170.3361 C58.434,170.3291 58.396,170.3211 58.359,170.3141 C57.78,170.1951 57.205,170.0641 56.639,169.9091 L77.346,190.6161 C89.857,203.1281 110.143,203.1281 122.654,190.6161 L143.367,169.9041 C143.243,169.9371 143.122,169.9771 142.998,170.0081" id="Fill-1" fill="#2C55FF"></path>
                        <path d="M189.9975,121.4447 C185.1295,125.5337 178.8535,128.0007 171.9995,128.0007 C165.1465,128.0007 158.8705,125.5337 154.0035,121.4447 C154.0015,121.4457 154.0005,121.4467 153.9995,121.4477 L153.9975,121.4447 C153.9965,121.4447 153.9965,121.4447 153.9965,121.4437 C153.8035,121.2827 153.6055,121.1277 153.4085,120.9717 C153.2135,120.8167 153.0175,120.6637 152.8185,120.5137 C152.6245,120.3687 152.4315,120.2237 152.2345,120.0827 C151.9885,119.9077 151.7395,119.7397 151.4885,119.5727 C151.2215,119.3947 150.9515,119.2217 150.6785,119.0537 C150.4235,118.8967 150.1685,118.7407 149.9095,118.5917 C149.7145,118.4807 149.5185,118.3727 149.3215,118.2657 C149.0585,118.1237 148.7925,117.9857 148.5255,117.8517 C148.3465,117.7617 148.1695,117.6687 147.9885,117.5827 C147.9155,117.5477 147.8405,117.5167 147.7675,117.4827 C147.1895,117.2147 146.6015,116.9657 146.0025,116.7367 C145.9125,116.7017 145.8225,116.6637 145.7305,116.6297 C145.5075,116.5467 145.2835,116.4727 145.0585,116.3967 C144.8715,116.3327 144.6835,116.2657 144.4955,116.2057 C144.2855,116.1387 144.0735,116.0787 143.8615,116.0167 C143.6525,115.9557 143.4425,115.8937 143.2305,115.8377 C143.0275,115.7837 142.8225,115.7327 142.6165,115.6837 C142.3905,115.6287 142.1655,115.5757 141.9375,115.5267 C141.7395,115.4837 141.5395,115.4427 141.3385,115.4047 C141.0985,115.3577 140.8575,115.3147 140.6155,115.2747 C140.4445,115.2467 140.2735,115.2187 140.1015,115.1937 C139.5025,115.1057 138.8975,115.0357 138.2865,114.9867 C138.1735,114.9777 138.0595,114.9717 137.9465,114.9637 C137.3025,114.9187 136.6555,114.8897 135.9995,114.8897 C130.0025,114.8897 124.4485,116.7777 119.8925,119.9897 C119.2425,120.4477 118.6115,120.9337 118.0035,121.4447 C118.0015,121.4457 118.0005,121.4467 117.9995,121.4477 L117.9975,121.4447 C117.9335,121.4977 117.8735,121.5537 117.8105,121.6057 C117.6785,121.7147 117.5395,121.8147 117.4045,121.9217 C117.2115,122.0747 117.0195,122.2257 116.8235,122.3727 C116.6265,122.5207 116.4305,122.6677 116.2305,122.8097 C115.9925,122.9797 115.7485,123.1437 115.5045,123.3067 C115.3655,123.3987 115.2325,123.4987 115.0915,123.5887 C114.9535,123.6777 114.8075,123.7567 114.6665,123.8437 C114.4175,123.9977 114.1665,124.1497 113.9125,124.2957 C113.7155,124.4087 113.5165,124.5187 113.3175,124.6267 C113.0585,124.7667 112.7965,124.9017 112.5345,125.0337 C112.4015,125.1007 112.2735,125.1747 112.1385,125.2387 C112.0885,125.2637 112.0365,125.2847 111.9855,125.3087 C111.9235,125.3367 111.8615,125.3637 111.8005,125.3917 C111.1945,125.6737 110.5765,125.9357 109.9475,126.1747 C109.8745,126.2027 109.8055,126.2327 109.7335,126.2587 C109.5055,126.3427 109.2755,126.4187 109.0455,126.4977 C108.8635,126.5597 108.6815,126.6247 108.4975,126.6837 C108.2855,126.7507 108.0705,126.8117 107.8565,126.8747 C107.6495,126.9347 107.4425,126.9957 107.2325,127.0517 C107.1545,127.0727 107.0775,127.0977 106.9985,127.1187 C106.8715,127.1517 106.7405,127.1757 106.6135,127.2077 C106.3895,127.2607 106.1655,127.3137 105.9405,127.3627 C105.7405,127.4057 105.5395,127.4467 105.3355,127.4857 C105.0975,127.5317 104.8585,127.5747 104.6185,127.6147 C104.4995,127.6337 104.3825,127.6597 104.2635,127.6767 C104.2095,127.6857 104.1545,127.6877 104.1005,127.6967 C103.5015,127.7847 102.8975,127.8537 102.2875,127.9037 C102.1735,127.9127 102.0585,127.9177 101.9445,127.9257 C101.3025,127.9697 100.6575,127.9997 100.0035,128.0007 L99.9995,128.0007 C93.1465,128.0007 86.8705,125.5337 82.0035,121.4447 C82.0015,121.4457 82.0005,121.4467 81.9995,121.4477 L81.9975,121.4447 C81.6125,121.1227 81.2165,120.8137 80.8155,120.5117 C77.7205,118.1817 74.1325,116.4747 70.2305,115.5867 C69.4295,115.4047 68.6155,115.2557 67.7895,115.1447 C66.5495,114.9767 65.2855,114.8897 63.9995,114.8897 C58.0025,114.8897 52.4485,116.7777 47.8925,119.9897 C47.2425,120.4477 46.6115,120.9337 46.0035,121.4447 C46.0015,121.4457 46.0005,121.4467 45.9995,121.4477 L45.9975,121.4447 C41.1295,125.5337 34.8535,128.0007 27.9995,128.0007 C21.1465,128.0007 14.8705,125.5337 10.0035,121.4447 C3.8895,116.3087 -0.0005,108.6097 -0.0005,100.0007 C-0.0005,108.0437 3.0185,116.0827 9.0395,122.2917 C9.1555,122.4117 9.2655,122.5357 9.3835,122.6537 L36.9865,150.2567 C36.9765,150.2207 36.9705,150.1837 36.9605,150.1477 C36.9705,150.1847 36.9795,150.2227 36.9895,150.2597 L48.5895,161.8597 L56.6325,169.9037 C57.2015,170.0577 57.7775,170.1937 58.3595,170.3137 C58.3965,170.3217 58.4335,170.3297 58.4695,170.3357 C59.5975,170.5637 60.7495,170.7197 61.9215,170.8067 C62.0435,170.8157 62.1655,170.8247 62.2875,170.8327 C62.8535,170.8667 63.4235,170.8897 63.9995,170.8897 C64.6265,170.8897 65.2465,170.8627 65.8625,170.8217 C66.0895,170.8067 66.3175,170.7957 66.5415,170.7757 C66.5565,170.7747 66.5705,170.7727 66.5835,170.7707 C66.9885,170.7337 67.3905,170.6897 67.7895,170.6347 C67.8545,170.6267 67.9175,170.6137 67.9835,170.6047 C69.5675,170.3777 71.1095,170.0237 72.5955,169.5437 C72.6565,169.5247 72.7145,169.5017 72.7755,169.4817 C73.8735,169.1197 74.9415,168.6947 75.9735,168.2047 C75.9785,168.2027 75.9835,168.1997 75.9885,168.1977 C77.7965,167.3377 79.4995,166.2907 81.0705,165.0807 C81.1195,165.0427 81.1655,165.0017 81.2145,164.9637 C81.4795,164.7567 81.7425,164.5477 81.9995,164.3327 C82.0005,164.3337 82.0015,164.3347 82.0035,164.3347 C86.8715,160.2467 93.1465,157.7797 99.9995,157.7797 C106.8535,157.7797 113.1295,160.2467 117.9965,164.3347 C117.9985,164.3347 117.9985,164.3337 117.9995,164.3327 C118.2575,164.5477 118.5205,164.7567 118.7865,164.9637 C118.8335,165.0017 118.8805,165.0427 118.9295,165.0807 C120.4995,166.2907 122.2035,167.3377 124.0115,168.1977 C124.0175,168.1997 124.0215,168.2027 124.0275,168.2047 C125.0235,168.6767 126.0545,169.0877 127.1115,169.4417 C127.2085,169.4747 127.3055,169.5117 127.4055,169.5437 C127.7635,169.6597 128.1265,169.7667 128.4915,169.8687 C128.5195,169.8767 128.5465,169.8857 128.5755,169.8937 C129.6955,170.2017 130.8455,170.4377 132.0165,170.6047 C132.0825,170.6137 132.1455,170.6267 132.2105,170.6347 C132.5275,170.6777 132.8475,170.7107 133.1675,170.7437 C133.2655,170.7527 133.3615,170.7667 133.4575,170.7757 C133.6645,170.7937 133.8715,170.8037 134.0785,170.8177 C134.7135,170.8607 135.3535,170.8897 135.9995,170.8897 C136.6785,170.8897 137.3505,170.8607 138.0165,170.8137 C138.2975,170.7927 138.5745,170.7567 138.8525,170.7287 C139.2245,170.6907 139.5975,170.6537 139.9655,170.6017 C141.1235,170.4357 142.2595,170.2057 143.3675,169.9037 L151.4105,161.8597 L163.0135,150.2567 L190.6165,122.6537 C190.7355,122.5357 190.8445,122.4117 190.9605,122.2917 C192.0855,121.1317 193.1065,119.9067 194.0215,118.6307 C197.3115,114.0437 199.2155,108.7837 199.7875,103.4057 C198.9115,110.6257 195.2905,116.9967 189.9975,121.4447" id="Path" fill="#3B82FF"></path>
                        <path d="M10.0029,121.4451 C14.8699,125.5341 21.1469,128.0001 27.9999,128.0001 C34.8549,128.0001 41.1299,125.5341 45.9969,121.4451 L45.9999,121.4421 L46.0029,121.4451 C46.6109,120.9341 47.2419,120.4481 47.8929,119.9891 C52.4479,116.7781 58.0029,114.8901 63.9999,114.8901 C65.2849,114.8901 66.5499,114.9771 67.7889,115.1441 C68.6149,115.2571 69.4299,115.4041 70.2309,115.5871 C74.1329,116.4741 77.7219,118.1821 80.8159,120.5111 C81.2169,120.8131 81.6119,121.1221 81.9969,121.4451 L81.9999,121.4421 L82.0029,121.4451 C86.8699,125.5331 93.1469,128.0001 99.9999,128.0001 L100.0039,128.0001 C100.6569,128.0001 101.3029,127.9701 101.9439,127.9261 C102.0589,127.9181 102.1739,127.9121 102.2869,127.9031 C102.8979,127.8541 103.5019,127.7841 104.1009,127.6961 C104.2739,127.6701 104.4459,127.6431 104.6179,127.6141 C104.8579,127.5741 105.0979,127.5311 105.3359,127.4861 C105.5379,127.4461 105.7399,127.4051 105.9409,127.3621 C106.1659,127.3141 106.3899,127.2611 106.6129,127.2071 C106.8199,127.1571 107.0269,127.1071 107.2329,127.0521 C107.4419,126.9961 107.6489,126.9351 107.8569,126.8741 C108.0699,126.8121 108.2849,126.7511 108.4969,126.6841 C108.6819,126.6251 108.8629,126.5601 109.0459,126.4981 C109.2749,126.4191 109.5069,126.3431 109.7329,126.2591 C109.8059,126.2331 109.8759,126.2021 109.9469,126.1751 C110.5759,125.9361 111.1939,125.6741 111.8009,125.3921 C111.8609,125.3631 111.9249,125.3371 111.9849,125.3081 C112.1709,125.2201 112.3519,125.1251 112.5339,125.0341 C112.7969,124.9021 113.0589,124.7671 113.3169,124.6271 C113.5169,124.5181 113.7159,124.4081 113.9129,124.2961 C114.1669,124.1501 114.4179,123.9971 114.6669,123.8431 C114.9489,123.6691 115.2289,123.4911 115.5039,123.3071 C115.7479,123.1441 115.9919,122.9801 116.2309,122.8091 C116.4309,122.6671 116.6269,122.5211 116.8219,122.3741 C117.0189,122.2251 117.2119,122.0741 117.4039,121.9211 C117.6029,121.7631 117.8029,121.6081 117.9969,121.4451 L117.9999,121.4421 C119.3089,120.3421 120.5189,119.1291 121.6069,117.8111 C120.5189,119.1291 119.3089,120.3421 117.9999,121.4421 L118.0029,121.4451 C118.6109,120.9341 119.2419,120.4481 119.8929,119.9891 C124.4479,116.7781 130.0029,114.8901 135.9999,114.8901 C136.6549,114.8901 137.3029,114.9191 137.9459,114.9641 C138.0599,114.9711 138.1729,114.9771 138.2859,114.9871 C138.8979,115.0361 139.5029,115.1061 140.1029,115.1941 C140.1549,115.2021 140.2109,115.2041 140.2649,115.2131 C140.3819,115.2311 140.4969,115.2561 140.6139,115.2751 C140.8569,115.3151 141.0989,115.3581 141.3389,115.4041 C141.5389,115.4431 141.7389,115.4841 141.9389,115.5271 C142.1649,115.5761 142.3909,115.6291 142.6159,115.6831 C142.7429,115.7141 142.8719,115.7391 142.9979,115.7711 C143.0759,115.7921 143.1519,115.8171 143.2309,115.8381 C143.4419,115.8941 143.6519,115.9551 143.8609,116.0171 C144.0729,116.0791 144.2849,116.1391 144.4949,116.2061 C144.6849,116.2661 144.8709,116.3321 145.0589,116.3961 C145.2829,116.4731 145.5089,116.5471 145.7309,116.6301 C145.8219,116.6631 145.9119,116.7021 146.0029,116.7371 C146.6019,116.9661 147.1899,117.2151 147.7679,117.4831 C147.8409,117.5171 147.9159,117.5481 147.9879,117.5831 C148.0379,117.6071 148.0899,117.6271 148.1399,117.6511 C148.2709,117.7141 148.3959,117.7871 148.5259,117.8521 C148.7929,117.9861 149.0589,118.1231 149.3209,118.2651 C149.5189,118.3721 149.7149,118.4811 149.9089,118.5921 C150.1689,118.7411 150.4239,118.8961 150.6789,119.0531 C150.9519,119.2221 151.2219,119.3951 151.4879,119.5721 C151.7389,119.7391 151.9889,119.9081 152.2339,120.0831 C152.4319,120.2231 152.6249,120.3681 152.8189,120.5141 C153.0179,120.6641 153.2139,120.8171 153.4079,120.9711 C153.5409,121.0771 153.6799,121.1761 153.8109,121.2841 C153.8739,121.3361 153.9339,121.3921 153.9959,121.4441 C153.9959,121.4451 153.9959,121.4451 153.9969,121.4451 L153.9999,121.4421 L154.0029,121.4451 C158.8699,125.5331 165.1469,128.0001 171.9999,128.0001 C178.8549,128.0001 185.1299,125.5331 189.9969,121.4451 C196.1099,116.3091 199.9999,108.6101 199.9999,100.0001 C199.9999,91.3901 196.1099,83.6911 189.9969,78.5551 C185.1299,74.4661 178.8549,72.0001 171.9999,72.0001 C165.1469,72.0001 158.8699,74.4661 154.0029,78.5551 L153.9999,78.5581 L153.9969,78.5551 C153.6919,78.8111 153.3829,79.0601 153.0679,79.3021 C151.1779,80.7581 149.0979,81.9791 146.8689,82.9191 C146.1269,83.2331 145.3679,83.5151 144.5949,83.7641 C141.8869,84.6381 138.9989,85.1101 135.9999,85.1101 C133.0019,85.1101 130.1129,84.6381 127.4059,83.7641 C126.6319,83.5151 125.8729,83.2331 125.1309,82.9191 C122.9029,81.9791 120.8219,80.7581 118.9329,79.3021 C118.6169,79.0601 118.3079,78.8111 118.0029,78.5551 L117.9999,78.5581 C119.3089,79.6571 120.5189,80.8711 121.6069,82.1891 C120.5189,80.8711 119.3089,79.6571 117.9999,78.5581 L117.9969,78.5551 C117.9959,78.5541 117.9949,78.5541 117.9949,78.5531 C117.8039,78.3931 117.6069,78.2391 117.4109,78.0831 C117.2149,77.9271 117.0179,77.7741 116.8169,77.6231 C116.6249,77.4781 116.4319,77.3341 116.2349,77.1941 C115.9879,77.0171 115.7359,76.8471 115.4819,76.6791 C115.2199,76.5031 114.9519,76.3331 114.6829,76.1661 C114.4269,76.0081 114.1689,75.8511 113.9069,75.7011 C113.7149,75.5911 113.5199,75.4831 113.3229,75.3771 C113.0589,75.2331 112.7919,75.0951 112.5229,74.9611 C112.3449,74.8711 112.1699,74.7791 111.9899,74.6941 C111.9119,74.6561 111.8319,74.6231 111.7529,74.5871 C111.1889,74.3241 110.6119,74.0821 110.0279,73.8571 C109.9279,73.8191 109.8299,73.7771 109.7289,73.7391 C109.5099,73.6581 109.2869,73.5851 109.0659,73.5091 C108.8749,73.4441 108.6859,73.3771 108.4929,73.3151 C108.2859,73.2491 108.0749,73.1891 107.8659,73.1281 C107.6539,73.0661 107.4419,73.0041 107.2289,72.9471 C107.0259,72.8931 106.8229,72.8431 106.6189,72.7941 C106.3929,72.7391 106.1649,72.6861 105.9359,72.6361 C105.7379,72.5941 105.5399,72.5531 105.3419,72.5151 C105.0999,72.4681 104.8569,72.4251 104.6109,72.3841 C104.4419,72.3571 104.2739,72.3291 104.1039,72.3041 C103.5029,72.2161 102.8969,72.1461 102.2849,72.0961 C102.1729,72.0881 102.0609,72.0821 101.9479,72.0741 C101.3039,72.0291 100.6549,72.0001 99.9999,72.0001 C93.5739,72.0001 87.6569,74.1681 82.9329,77.8071 C82.6169,78.0501 82.3079,78.2991 82.0029,78.5551 L81.9999,78.5581 L81.9969,78.5551 C81.9339,78.6081 81.8739,78.6641 81.8109,78.7161 C81.6799,78.8241 81.5399,78.9241 81.4069,79.0291 C81.2129,79.1841 81.0189,79.3361 80.8199,79.4851 C80.6259,79.6321 80.4309,79.7771 80.2319,79.9191 C79.9909,80.0911 79.7449,80.2571 79.4979,80.4211 C79.2259,80.6021 78.9499,80.7791 78.6719,80.9511 C78.4199,81.1061 78.1679,81.2591 77.9109,81.4061 C77.7159,81.5191 77.5179,81.6281 77.3179,81.7361 C77.0589,81.8771 76.7959,82.0121 76.5299,82.1451 C76.3989,82.2121 76.2729,82.2851 76.1399,82.3491 C76.0889,82.3731 76.0369,82.3941 75.9859,82.4181 C75.9209,82.4491 75.8529,82.4781 75.7859,82.5081 C75.1919,82.7841 74.5879,83.0401 73.9729,83.2751 C73.8929,83.3051 73.8139,83.3401 73.7319,83.3701 C73.5079,83.4531 73.2789,83.5281 73.0529,83.6051 C72.8669,83.6691 72.6829,83.7351 72.4949,83.7941 C72.2849,83.8611 72.0719,83.9221 71.8599,83.9841 C71.6509,84.0451 71.4419,84.1061 71.2319,84.1621 C71.1519,84.1831 71.0759,84.2081 70.9979,84.2291 C70.8719,84.2611 70.7429,84.2861 70.6159,84.3171 C70.3909,84.3711 70.1649,84.4241 69.9389,84.4731 C69.7389,84.5161 69.5389,84.5571 69.3389,84.5951 C69.0989,84.6421 68.8569,84.6841 68.6149,84.7251 C68.4979,84.7441 68.3819,84.7691 68.2649,84.7871 C68.2109,84.7961 68.1549,84.7981 68.1019,84.8061 C67.5029,84.8941 66.8979,84.9641 66.2859,85.0131 C66.1729,85.0231 66.0599,85.0281 65.9459,85.0361 C65.3029,85.0811 64.6549,85.1101 63.9999,85.1101 C61.0019,85.1101 58.1129,84.6381 55.4059,83.7641 C54.6319,83.5151 53.8729,83.2331 53.1309,82.9191 C50.9029,81.9791 48.8219,80.7581 46.9329,79.3021 C46.6169,79.0601 46.3079,78.8111 46.0029,78.5551 L45.9999,78.5581 L45.9969,78.5551 C41.1299,74.4661 34.8549,72.0001 27.9999,72.0001 C21.5739,72.0001 15.6569,74.1681 10.9329,77.8071 C10.6169,78.0501 10.3079,78.2991 10.0029,78.5551 C3.8899,83.6911 -0.0001,91.3901 -0.0001,100.0001 C-0.0001,108.6101 3.8899,116.3091 10.0029,121.4451" id="Fill-4" fill="#5FADFF"></path>
                        <path d="M190.9609,77.7082 C190.8449,77.5882 190.7349,77.4642 190.6159,77.3462 L163.0139,49.7432 C163.0239,49.7792 163.0299,49.8162 163.0399,49.8532 C163.0289,49.8152 163.0219,49.7772 163.0109,49.7402 L151.4099,38.1402 L145.7319,32.4612 L128.9339,15.6632 L122.6539,9.3832 C110.1429,-3.1278 89.8569,-3.1278 77.3459,9.3832 L57.4879,29.2412 L56.6329,30.0962 L48.5899,38.1402 L36.9859,49.7432 L9.3839,77.3462 C9.2659,77.4642 9.1549,77.5882 9.0389,77.7082 C7.9139,78.8682 6.8949,80.0932 5.9789,81.3692 C2.3919,86.3702 0.4319,92.1702 0.0739,98.0522 C0.6119,90.2342 4.3559,83.3002 10.0039,78.5552 C10.3079,78.2992 10.6169,78.0502 10.9329,77.8072 C15.6569,74.1672 21.5739,72.0002 27.9999,72.0002 C34.8539,72.0002 41.1299,74.4662 45.9969,78.5552 L45.9999,78.5522 C46.0009,78.5532 46.0019,78.5542 46.0039,78.5552 C46.3079,78.8112 46.6169,79.0602 46.9329,79.3022 C48.8219,80.7582 50.9019,81.9792 53.1309,82.9192 C53.8729,83.2322 54.6329,83.5152 55.4059,83.7642 C58.1129,84.6382 61.0019,85.1102 63.9999,85.1102 C64.6549,85.1102 65.3029,85.0802 65.9459,85.0362 C66.0599,85.0282 66.1739,85.0222 66.2859,85.0132 C66.8979,84.9642 67.5019,84.8942 68.1019,84.8062 C68.2729,84.7802 68.4439,84.7532 68.6149,84.7252 C68.8569,84.6852 69.0989,84.6422 69.3389,84.5952 C69.5389,84.5572 69.7389,84.5162 69.9389,84.4732 C70.1649,84.4242 70.3909,84.3712 70.6159,84.3162 C70.8219,84.2672 71.0269,84.2162 71.2319,84.1622 C71.4419,84.1052 71.6509,84.0442 71.8599,83.9832 C72.0719,83.9212 72.2849,83.8612 72.4949,83.7942 C72.6829,83.7342 72.8669,83.6682 73.0529,83.6052 C73.2789,83.5272 73.5079,83.4532 73.7319,83.3702 C73.8139,83.3392 73.8929,83.3052 73.9729,83.2742 C74.5879,83.0402 75.1919,82.7842 75.7859,82.5082 C75.8529,82.4782 75.9199,82.4492 75.9859,82.4172 C76.1699,82.3312 76.3499,82.2362 76.5309,82.1452 C76.7959,82.0122 77.0589,81.8762 77.3179,81.7352 C77.5179,81.6282 77.7149,81.5192 77.9109,81.4062 C78.1679,81.2592 78.4199,81.1052 78.6719,80.9512 C78.9499,80.7782 79.2259,80.6022 79.4979,80.4212 C79.7449,80.2562 79.9899,80.0902 80.2319,79.9182 C80.4309,79.7772 80.6259,79.6312 80.8199,79.4842 C81.0189,79.3352 81.2129,79.1842 81.4059,79.0292 C81.6049,78.8722 81.8039,78.7172 81.9969,78.5552 L81.9999,78.5522 C82.0009,78.5532 82.0019,78.5542 82.0039,78.5552 C82.3079,78.2992 82.6169,78.0502 82.9329,77.8072 C87.6569,74.1672 93.5739,72.0002 99.9999,72.0002 C100.6559,72.0002 101.3049,72.0292 101.9479,72.0742 C102.0609,72.0822 102.1729,72.0872 102.2849,72.0962 C102.8969,72.1462 103.5029,72.2162 104.1039,72.3042 C104.1559,72.3122 104.2109,72.3142 104.2639,72.3222 C104.3809,72.3402 104.4949,72.3652 104.6109,72.3842 C104.8559,72.4252 105.0999,72.4682 105.3419,72.5152 C105.5399,72.5532 105.7379,72.5942 105.9359,72.6362 C106.1649,72.6862 106.3929,72.7392 106.6189,72.7942 C106.7449,72.8242 106.8729,72.8492 106.9979,72.8812 C107.0749,72.9012 107.1509,72.9262 107.2289,72.9472 C107.4419,73.0042 107.6539,73.0662 107.8659,73.1282 C108.0759,73.1892 108.2849,73.2492 108.4929,73.3152 C108.6859,73.3762 108.8749,73.4432 109.0649,73.5092 C109.2869,73.5842 109.5099,73.6582 109.7289,73.7392 C109.8299,73.7762 109.9279,73.8182 110.0279,73.8572 C110.6129,74.0812 111.1879,74.3252 111.7529,74.5862 C111.8319,74.6232 111.9119,74.6562 111.9899,74.6932 C112.0389,74.7172 112.0899,74.7372 112.1389,74.7612 C112.2699,74.8242 112.3939,74.8952 112.5229,74.9602 C112.7919,75.0952 113.0589,75.2332 113.3229,75.3762 C113.5199,75.4822 113.7149,75.5902 113.9079,75.7012 C114.1689,75.8522 114.4269,76.0082 114.6829,76.1662 C114.8179,76.2502 114.9579,76.3252 115.0919,76.4112 C115.2259,76.4972 115.3519,76.5912 115.4839,76.6792 C115.7359,76.8472 115.9879,77.0172 116.2339,77.1932 C116.4319,77.3332 116.6249,77.4782 116.8179,77.6232 C117.0179,77.7732 117.2149,77.9272 117.4099,78.0832 C117.5429,78.1882 117.6809,78.2862 117.8109,78.3942 C117.8739,78.4462 117.9339,78.5022 117.9969,78.5552 L117.9999,78.5522 C118.0009,78.5532 118.0019,78.5542 118.0039,78.5552 C118.3079,78.8112 118.6169,79.0602 118.9329,79.3022 C120.8219,80.7582 122.9019,81.9792 125.1309,82.9192 C125.8729,83.2322 126.6329,83.5152 127.4059,83.7642 C130.1129,84.6382 133.0019,85.1102 135.9999,85.1102 C138.9989,85.1102 141.8869,84.6382 144.5939,83.7642 C145.3679,83.5152 146.1269,83.2322 146.8689,82.9192 C149.0979,81.9792 151.1779,80.7582 153.0679,79.3022 C153.3829,79.0602 153.6919,78.8112 153.9969,78.5552 L153.9999,78.5522 C154.0009,78.5532 154.0019,78.5542 154.0039,78.5552 C158.8699,74.4662 165.1469,72.0002 171.9999,72.0002 C178.8539,72.0002 185.1299,74.4662 189.9969,78.5552 C196.1109,83.6912 199.9999,91.3902 199.9999,100.0002 C199.9999,91.9562 196.9819,83.9172 190.9609,77.7082" id="Fill-10" fill="#B1E1FF"></path>
                    </g>
                </g>
                <path d="M310.28,133.88 C325.16,133.88 335.36,127.16 335.36,114.68 C335.36,106.28 329.48,100.64 319.88,98.6 L305.72,95.48 C300.44,94.28 298.52,92.12 298.52,88.76 C298.52,84.56 301.76,80.96 309.08,80.96 C316.76,80.96 321.68,84.92 322.64,90.68 L334.52,88.16 C332.36,78.2 323.12,71 309.44,71 C295.16,71 285.92,78.8 285.92,89.84 C285.92,98.24 291.8,103.76 302.12,106.04 L315.08,108.68 C320.6,109.88 323.12,112.16 323.12,115.76 C323.12,120.44 318.56,123.68 311.36,123.68 C303.56,123.68 297.32,120.68 296.48,113.6 L284,116.24 C285.56,128.24 296.96,133.88 310.28,133.88 Z M377,152.6 L377,125.36 C382.16,130.76 389.6,133.88 398.6,133.88 C414.2,133.88 428.12,121.28 428.12,102.44 C428.12,83.72 414.2,71 398.6,71 C389.6,71 382.16,74.12 377,79.52 L377,72.68 L364.52,72.68 L364.52,152.6 L377,152.6 Z M396.56,122.84 C386.72,122.84 377,115.04 377,102.44 C377,89.96 386.72,82.04 396.56,82.04 C407.48,82.04 416,89.96 416,102.44 C416,115.04 407.48,122.84 396.56,122.84 Z M481.04,133.88 C490.04,133.88 497.48,130.76 502.64,125.36 L502.64,132.2 L515.12,132.2 L515.12,72.68 L502.64,72.68 L502.64,79.52 C497.48,74.12 490.04,71 481.04,71 C465.44,71 451.52,83.72 451.52,102.44 C451.52,121.28 465.44,133.88 481.04,133.88 Z M483.08,122.84 C472.16,122.84 463.64,115.04 463.64,102.44 C463.64,89.96 472.16,82.04 483.08,82.04 C492.92,82.04 502.64,89.96 502.64,102.44 C502.64,115.04 492.92,122.84 483.08,122.84 Z M620,133.88 C633.8,133.88 645.8,125.72 649.04,112.88 L637.52,109.88 C634.64,118.52 627.92,122.36 620,122.36 C608.96,122.36 600.8,114.56 600.8,102.44 C600.8,90.68 608.96,82.52 620,82.52 C627.92,82.52 634.76,86.6 637.04,95.36 L649.04,91.88 C645.32,79.16 633.44,71 620,71 C602.96,71 588.56,83.84 588.56,102.44 C588.56,121.28 602.96,133.88 620,133.88 Z M685.16,62.48 C689.72,62.48 693.08,59.24 693.08,54.8 C693.08,50.6 689.72,47 685.16,47 C680.48,47 677.12,50.6 677.12,54.8 C677.12,59.24 680.48,62.48 685.16,62.48 Z M691.4,132.2 L691.4,72.68 L678.92,72.68 L678.92,132.2 L691.4,132.2 Z M751.04,133.88 C756.08,133.88 760.16,132.68 765.8,129.32 L761.96,118.88 C758.84,120.92 755,122.12 751.88,122.12 C746,122.12 742.04,118.52 742.04,111.08 L742.04,83 L762.44,83 L762.44,72.68 L742.04,72.68 L742.04,54.2 L729.56,54.2 L729.56,72.68 L716.72,72.68 L716.72,83 L729.56,83 L729.56,111.92 C729.56,126.68 738.2,133.88 751.04,133.88 Z M812.96,152.6 L848.6,72.56 L834.68,72.56 L815.6,115.52 L797,72.56 L783.08,72.56 L808.76,130.76 L799.04,152.6 L812.96,152.6 Z" id="spacity" fill="#FFFFFF" fill-rule="nonzero"></path>
            </g>
        </g>
    </g>
</svg>